<?xml version="1.0" encoding="utf-8"?>
<!-- Generator: Adobe Illustrator 21.0.0, SVG Export Plug-In . SVG Version: 6.00 Build 0)  -->
<svg version="1.1" id="Layer_1" xmlns="http://www.w3.org/2000/svg" xmlns:xlink="http://www.w3.org/1999/xlink" x="0px" y="0px"
	 viewBox="0 0 128 128" style="enable-background:new 0 0 128 128;" xml:space="preserve">
<style type="text/css">
	.st0{fill:#CFF1FB;}
	.st1{fill:#91DEF5;}
	.st2{fill:#F6F7F7;}
	.st3{fill:#FFCFB8;}
	.st4{fill:#FFA77B;}
	.st5{fill:#E9EAEB;}
	.st6{fill:#746887;}
	.st7{fill:#F98770;}
	.st8{fill:#9B9B9B;}
	.st9{fill:#FFDDCF;}
	.st10{fill:#FFFFFF;}
	.st11{fill:#B7B7B7;}
	.st12{fill:#FFBC99;}
	.st13{fill:#DBDCDE;}
	.st14{fill:#FECFBA;}
	.st15{fill:#D0F1FA;}
	.st16{fill:#FDA77F;}
	.st17{fill:#94DEF4;}
</style>
<g>
	<path class="st2" d="M102.955,13.913H4.377c-1.653,0-2.987,1.255-2.987,2.809v94.558c0,1.554,1.334,2.809,2.987,2.809h98.578
		c1.653,0,2.987-1.255,2.987-2.809V94.604c-3.266,1.095-6.782,1.695-10.448,1.695c-17.185,0-31.117-13.099-31.117-29.257
		c0-16.158,13.931-29.257,31.117-29.257c3.666,0,7.182,0.601,10.448,1.696v-22.76C105.942,15.167,104.608,13.913,102.955,13.913z"/>
	<path class="st3" d="M12.599,56.744c0,6.463,5.573,11.703,12.447,11.703h39.369c-0.023-0.465-0.038-0.933-0.038-1.404
		c0-8.773,4.113-16.639,10.618-22.001H25.046C18.172,45.042,12.599,50.281,12.599,56.744z"/>
	<ellipse class="st0" cx="95.494" cy="67.043" rx="31.117" ry="29.257"/>
	<path class="st4" d="M104.907,66.798H86.08c-1.66,0-3.005,1.265-3.005,2.826v11.863c0,1.561,1.346,2.826,3.005,2.826h18.827
		c1.66,0,3.005-1.265,3.005-2.826V69.623C107.912,68.063,106.567,66.798,104.907,66.798z"/>
	<path class="st4" d="M102.955,13.913H4.377c-1.653,0-2.987,1.255-2.987,2.809V27.02h104.552V16.721
		C105.942,15.167,104.608,13.913,102.955,13.913z"/>
	<path class="st4" d="M95.494,49.773L95.494,49.773c-4.737,0-8.577,3.61-8.577,8.064v8.96h17.154v-8.96
		C104.071,53.384,100.231,49.773,95.494,49.773z"/>
	<path class="st0" d="M95.494,55.478L95.494,55.478c-1.612,0-2.919,1.229-2.919,2.745v8.575h5.839v-8.575
		C98.413,56.707,97.106,55.478,95.494,55.478z"/>
	<ellipse class="st2" cx="95.494" cy="75.37" rx="3.17" ry="2.981"/>
</g>
<g>
	<path class="st7" d="M102.955,12.5H4.377c-2.476,0-4.49,1.894-4.49,4.221V27.02c0,0.78,0.673,1.413,1.503,1.413h47.922
		c0.83,0,1.503-0.633,1.503-1.413s-0.673-1.413-1.503-1.413H2.893v-8.886c0-0.769,0.666-1.395,1.485-1.395h98.577
		c0.818,0,1.485,0.626,1.485,1.395v8.886H56.991c-0.83,0-1.503,0.633-1.503,1.413s0.673,1.413,1.503,1.413h48.951
		c0.83,0,1.503-0.633,1.503-1.413V16.721C107.444,14.394,105.43,12.5,102.955,12.5z"/>
	<path class="st6" d="M102.955,12.5H4.377c-2.476,0-4.49,1.894-4.49,4.221v79.725c0,0.78,0.673,1.413,1.503,1.413
		s1.503-0.633,1.503-1.413V16.721c0-0.769,0.666-1.395,1.485-1.395h98.577c0.818,0,1.485,0.626,1.485,1.395v20.825
		c-2.903-0.779-5.903-1.173-8.945-1.173c-17.986,0-32.619,13.758-32.619,30.669c0,16.912,14.633,30.67,32.619,30.67
		c3.041,0,6.041-0.394,8.945-1.173v14.739c0,0.769-0.666,1.395-1.485,1.395H4.377c-0.819,0-1.485-0.626-1.485-1.395v-7.342
		c0-0.78-0.673-1.413-1.503-1.413s-1.503,0.633-1.503,1.413v7.342c0,2.327,2.014,4.221,4.49,4.221h98.577
		c2.476,0,4.49-1.894,4.49-4.221V94.604c0-0.459-0.237-0.89-0.637-1.154c-0.4-0.265-0.912-0.333-1.37-0.177
		c-3.196,1.072-6.541,1.614-9.944,1.614c-16.33,0-29.614-12.491-29.614-27.844c0-15.353,13.285-27.843,29.614-27.843
		c3.404,0,6.75,0.543,9.944,1.613c0.458,0.154,0.97,0.087,1.37-0.177c0.4-0.264,0.637-0.695,0.637-1.154V16.721
		C107.444,14.394,105.43,12.5,102.955,12.5z"/>
	<path class="st6" d="M14.335,19.054h-2.987c-0.83,0-1.503,0.633-1.503,1.413s0.673,1.413,1.503,1.413h2.987
		c0.83,0,1.503-0.633,1.503-1.413S15.165,19.054,14.335,19.054z"/>
	<path class="st6" d="M23.296,19.054h-2.987c-0.83,0-1.503,0.633-1.503,1.413s0.673,1.413,1.503,1.413h2.987
		c0.83,0,1.503-0.633,1.503-1.413S24.126,19.054,23.296,19.054z"/>
	<path class="st6" d="M74.995,43.629H25.046c-7.692,0-13.949,5.884-13.949,13.116S17.354,69.86,25.046,69.86h39.369
		c0.41,0,0.803-0.158,1.087-0.437c0.284-0.28,0.433-0.656,0.414-1.041c-0.022-0.444-0.036-0.89-0.036-1.339
		c0-8.012,3.683-15.644,10.106-20.938c0.471-0.388,0.636-1.009,0.416-1.56C76.181,43.993,75.62,43.629,74.995,43.629z
		 M62.874,67.034H25.046c-6.035,0-10.944-4.616-10.944-10.29s4.91-10.29,10.944-10.29h46.282
		C65.919,52.066,62.876,59.393,62.874,67.034z"/>
	<path class="st7" d="M30.867,54.787c-0.46,0-0.834-0.351-0.834-0.784s0.374-0.784,0.834-0.784h1.168
		c0.83,0,1.503-0.633,1.503-1.413s-0.673-1.413-1.503-1.413h-1.168c-2.117,0-3.839,1.619-3.839,3.609s1.722,3.609,3.839,3.609
		c0.46,0,0.833,0.352,0.833,0.785c0,0.432-0.374,0.784-0.833,0.784h-1.168c-0.83,0-1.503,0.633-1.503,1.413
		c0,0.78,0.673,1.413,1.503,1.413h1.168c2.117,0,3.839-1.619,3.839-3.609C34.706,56.407,32.984,54.787,30.867,54.787z"/>
	<path class="st7" d="M40.166,51.492c-0.83,0-1.503,0.633-1.503,1.413v0.736c0,0.78,0.673,1.413,1.503,1.413
		s1.503-0.633,1.503-1.413v-0.736C41.669,52.125,40.996,51.492,40.166,51.492z"/>
	<path class="st7" d="M40.166,57.347c-0.83,0-1.503,0.633-1.503,1.413v0.736c0,0.78,0.673,1.413,1.503,1.413
		s1.503-0.633,1.503-1.413V58.76C41.669,57.98,40.996,57.347,40.166,57.347z"/>
	<path class="st7" d="M50.229,50.543c-0.741-0.347-1.644-0.065-2.016,0.632l-4.673,8.787c-0.371,0.698-0.07,1.546,0.672,1.896
		c0.216,0.101,0.445,0.149,0.671,0.149c0.551,0,1.081-0.286,1.345-0.781l4.673-8.787C51.272,51.741,50.971,50.893,50.229,50.543z"/>
	<path class="st7" d="M57.083,50.543c-0.742-0.347-1.645-0.065-2.016,0.632l-4.672,8.787c-0.371,0.698-0.07,1.547,0.672,1.896
		c0.216,0.101,0.445,0.149,0.671,0.149c0.551,0,1.082-0.286,1.345-0.781l4.672-8.787C58.126,51.741,57.825,50.892,57.083,50.543z"/>
	<path class="st6" d="M95.494,39.199c14.999,0,27.638,10.548,29.398,24.537c0.097,0.774,0.852,1.334,1.669,1.236
		c0.824-0.091,1.413-0.794,1.316-1.569c-1.94-15.41-15.862-27.029-32.383-27.029c-17.986,0-32.619,13.758-32.619,30.669
		c0,16.912,14.633,30.67,32.619,30.67c16.194,0,30.08-11.36,32.301-26.423c0.114-0.773-0.46-1.486-1.282-1.593
		c-0.822-0.107-1.581,0.431-1.695,1.205c-2.016,13.674-14.623,23.986-29.324,23.986c-16.33,0-29.614-12.491-29.614-27.844
		C65.879,51.69,79.164,39.199,95.494,39.199z"/>
	<path class="st7" d="M95.494,48.361c-5.558,0-10.08,4.251-10.08,9.477v8.961c0,0.78,0.673,1.413,1.503,1.413h17.154
		c0.83,0,1.503-0.633,1.503-1.413v-8.961C105.573,52.612,101.052,48.361,95.494,48.361z M102.568,65.385H88.419v-7.548
		c0-3.667,3.174-6.651,7.074-6.651s7.074,2.984,7.074,6.651V65.385z"/>
	<path class="st7" d="M95.494,54.065c-2.438,0-4.422,1.865-4.422,4.158v8.575c0,0.78,0.673,1.413,1.503,1.413h5.838
		c0.83,0,1.503-0.633,1.503-1.413v-8.575C99.915,55.931,97.932,54.065,95.494,54.065z M96.91,65.385h-2.833v-7.163
		c0-0.734,0.635-1.332,1.417-1.332s1.417,0.598,1.417,1.332V65.385z"/>
	<path class="st6" d="M95.494,70.977c-2.577,0-4.673,1.971-4.673,4.394c0,2.422,2.096,4.393,4.673,4.393s4.673-1.971,4.673-4.393
		C100.166,72.948,98.07,70.977,95.494,70.977z M95.494,76.938c-0.92,0-1.667-0.703-1.667-1.567c0-0.865,0.748-1.568,1.667-1.568
		s1.667,0.704,1.667,1.568C97.161,76.235,96.413,76.938,95.494,76.938z"/>
	<path class="st7" d="M104.907,65.385H86.08c-2.486,0-4.508,1.901-4.508,4.238v11.863c0,2.337,2.022,4.238,4.508,4.238h18.827
		c2.486,0,4.508-1.901,4.508-4.238V69.624C109.415,67.286,107.393,65.385,104.907,65.385z M106.41,81.486
		c0,0.779-0.674,1.413-1.503,1.413H86.08c-0.829,0-1.503-0.634-1.503-1.413V69.624c0-0.779,0.674-1.413,1.503-1.413h18.827
		c0.829,0,1.503,0.634,1.503,1.413V81.486z"/>
	<path class="st6" d="M63.623,92.546H15.828c-0.83,0-1.503,0.633-1.503,1.413s0.673,1.413,1.503,1.413h47.795
		c0.83,0,1.503-0.633,1.503-1.413S64.453,92.546,63.623,92.546z"/>
	<path class="st6" d="M59.64,85.056H15.828c-0.83,0-1.503,0.633-1.503,1.413s0.673,1.413,1.503,1.413H59.64
		c0.83,0,1.503-0.633,1.503-1.413S60.471,85.056,59.64,85.056z"/>
	<path class="st6" d="M55.657,77.566H15.828c-0.83,0-1.503,0.633-1.503,1.413s0.673,1.413,1.503,1.413h39.829
		c0.83,0,1.503-0.633,1.503-1.413S56.487,77.566,55.657,77.566z"/>
	<path class="st6" d="M67.606,100.035H15.828c-0.83,0-1.503,0.633-1.503,1.413c0,0.78,0.673,1.413,1.503,1.413h51.778
		c0.83,0,1.503-0.633,1.503-1.413C69.109,100.668,68.436,100.035,67.606,100.035z"/>
</g>
<g>
</g>
</svg>
